<mxfile host="app.diagrams.net" agent="Mozilla/5.0 (Macintosh; Intel Mac OS X 10_15_7) AppleWebKit/605.1.15 (KHTML, like Gecko) Version/18.1.1 Safari/605.1.15" version="24.9.1">
  <diagram name="Page-1" id="O-CuJVroUfgKDCGdwkwK">
    <mxGraphModel dx="2193" dy="827" grid="1" gridSize="10" guides="1" tooltips="1" connect="1" arrows="1" fold="1" page="1" pageScale="1" pageWidth="827" pageHeight="1169" math="0" shadow="0">
      <root>
        <mxCell id="0" />
        <mxCell id="1" parent="0" />
        <mxCell id="2ohcHXgGueIymo1afpBc-3" value="" style="edgeStyle=orthogonalEdgeStyle;rounded=0;orthogonalLoop=1;jettySize=auto;html=1;" edge="1" parent="1" source="2ohcHXgGueIymo1afpBc-1" target="2ohcHXgGueIymo1afpBc-2">
          <mxGeometry relative="1" as="geometry" />
        </mxCell>
        <mxCell id="2ohcHXgGueIymo1afpBc-5" value="" style="edgeStyle=orthogonalEdgeStyle;rounded=0;orthogonalLoop=1;jettySize=auto;html=1;" edge="1" parent="1" source="2ohcHXgGueIymo1afpBc-1" target="2ohcHXgGueIymo1afpBc-4">
          <mxGeometry relative="1" as="geometry" />
        </mxCell>
        <mxCell id="2ohcHXgGueIymo1afpBc-1" value="" style="whiteSpace=wrap;html=1;aspect=fixed;" vertex="1" parent="1">
          <mxGeometry x="210" y="230" width="250" height="250" as="geometry" />
        </mxCell>
        <mxCell id="2ohcHXgGueIymo1afpBc-2" value="" style="whiteSpace=wrap;html=1;" vertex="1" parent="1">
          <mxGeometry x="605" y="325" width="120" height="60" as="geometry" />
        </mxCell>
        <mxCell id="2ohcHXgGueIymo1afpBc-4" value="Source code , Tensorflow,&amp;nbsp;" style="whiteSpace=wrap;html=1;" vertex="1" parent="1">
          <mxGeometry x="-55" y="325" width="120" height="60" as="geometry" />
        </mxCell>
      </root>
    </mxGraphModel>
  </diagram>
</mxfile>
